<?xml version="1.0" encoding="UTF-8" standalone="no"?>
<svg
   xmlns:dc="http://purl.org/dc/elements/1.1/"
   xmlns:cc="http://creativecommons.org/ns#"
   xmlns:rdf="http://www.w3.org/1999/02/22-rdf-syntax-ns#"
   xmlns:svg="http://www.w3.org/2000/svg"
   xmlns="http://www.w3.org/2000/svg"
   xmlns:sodipodi="http://sodipodi.sourceforge.net/DTD/sodipodi-0.dtd"
   xmlns:inkscape="http://www.inkscape.org/namespaces/inkscape"
   inkscape:version="1.0 (4035a4f, 2020-05-01)"
   sodipodi:docname="sheperd_old_thinking.svg"
   id="svg1058"
   version="1.1"
   viewBox="0 0 210 297"
   height="297mm"
   width="210mm">
  <defs
     id="defs1052" />
  <sodipodi:namedview
     inkscape:window-maximized="1"
     inkscape:window-y="27"
     inkscape:window-x="0"
     inkscape:window-height="1016"
     inkscape:window-width="1920"
     showgrid="false"
     inkscape:document-rotation="0"
     inkscape:current-layer="layer1"
     inkscape:document-units="mm"
     inkscape:cy="178.34208"
     inkscape:cx="-539.0315"
     inkscape:zoom="0.35"
     inkscape:pageshadow="2"
     inkscape:pageopacity="0.0"
     borderopacity="1.0"
     bordercolor="#666666"
     pagecolor="#ffffff"
     id="base" />
  <metadata
     id="metadata1055">
    <rdf:RDF>
      <cc:Work
         rdf:about="">
        <dc:format>image/svg+xml</dc:format>
        <dc:type
           rdf:resource="http://purl.org/dc/dcmitype/StillImage" />
      </cc:Work>
    </rdf:RDF>
  </metadata>
  <g
     id="layer1"
     inkscape:groupmode="layer"
     inkscape:label="Layer 1">
    <path
       style="display:inline;fill:#efd5b1;fill-opacity:1;stroke:#000000;stroke-width:1.85208;stroke-linecap:round;stroke-linejoin:round;stroke-miterlimit:4;stroke-dasharray:none;stroke-opacity:1"
       d="m 74.516953,115.86543 c 0,0 -6.947054,2.09732 -8.973191,0.0373 -2.02614,-2.06004 -0.345168,-8.8095 -5.054494,-9.61454 -4.709327,-0.80503 -5.004502,2.81248 -5.004502,2.81248 0,0 -13.387504,-1.46488 -11.924416,13.6603 1.457127,15.06355 15.806624,10.32452 18.238568,10.43762 2.119569,0.0986 9.91375,1.1911 9.91375,1.1911 z"
       id="path102"
       sodipodi:nodetypes="csscsscc" />
    <path
       style="display:inline;fill:#d3c27c;fill-opacity:1;stroke:#000000;stroke-width:1.85208;stroke-linecap:round;stroke-linejoin:round;stroke-miterlimit:4;stroke-dasharray:none;stroke-opacity:1"
       d="m 66.306458,114.0764 c 0,0 -10.101713,16.89804 -0.844148,32.48298 0,0 9.030453,2.4086 14.737243,0.43093 5.7068,-1.97767 15.04202,-1.65639 18.60228,-3.38129 3.560257,-1.7249 23.161917,-2.87552 26.017167,-28.88189 2.85525,-26.006369 -4.3247,-22.869035 -4.3247,-22.869035 0,0 -33.918057,12.407655 -38.744037,16.390185 -6.32719,5.22138 -15.443805,5.82812 -15.443805,5.82812 z"
       id="path105"
       sodipodi:nodetypes="ccssscsc" />
    <path
       style="display:inline;fill:#91703b;fill-opacity:1;stroke:#000000;stroke-width:1.85208;stroke-linecap:round;stroke-linejoin:round;stroke-miterlimit:4;stroke-dasharray:none;stroke-opacity:1"
       d="M 47.099586,42.183085 C 32.652426,35.041316 31.53299,17.202615 44.929651,11.892147 c 13.396661,-5.3104687 16.46187,10.019649 18.328447,15.077731 1.982139,5.371238 1.608375,31.776277 -1.054193,55.499591 -2.662568,23.723311 -4.055877,43.980511 -3.438927,62.160631 0.97631,28.76963 -3.957354,122.56618 -7.323466,123.10529 -3.760443,0.6023 0.557583,-42.2077 1.025954,-77.97726 0.386136,-29.4891 -1.003205,-51.97832 -1.497719,-58.84633 -0.494517,-6.86801 6.424769,-51.227954 6.885998,-70.570517 0.366332,-15.362801 1.811272,-47.579224 -10.115864,-42.592523 -9.216645,3.853453 -0.143164,20.513702 -0.640295,24.434325 z"
       id="path92"
       sodipodi:nodetypes="czssssssssc" />
    <path
       style="display:inline;fill:#efd5b1;fill-opacity:1;stroke:#000000;stroke-width:1.85208;stroke-linecap:round;stroke-linejoin:round;stroke-miterlimit:4;stroke-dasharray:none;stroke-opacity:1"
       d="m 51.379396,108.66906 c 0,0 -8.158583,1.86158 -8.293346,12.89138 -0.09235,7.55793 2.988929,10.81197 7.543557,11.70051 1.456968,0.28424 3.571433,-0.89088 3.64296,-2.5614 0.115089,-2.68795 -4.602879,-4.74933 -4.602879,-4.74933 0,0 6.65684,0.67249 6.302057,-2.88815 -0.354782,-3.56063 -4.155897,-3.92271 -4.155897,-3.92271 0,0 5.477182,-0.63406 4.879599,-3.34811 -0.465482,-2.11409 -2.544612,-2.69003 -3.652279,-3.20302 -1.107668,-0.51298 -2.275295,-0.37568 -1.663772,-3.91917 z"
       id="path99"
       sodipodi:nodetypes="csascscszc" />
    <path
       style="display:inline;fill:#efd5b1;fill-opacity:1;stroke:#000000;stroke-width:1.85208;stroke-linecap:round;stroke-linejoin:round;stroke-miterlimit:4;stroke-dasharray:none;stroke-opacity:1"
       d="m 114.26424,234.612 c 0,0 9.10221,28.30349 8.51493,29.6949 -0.58727,1.39139 17.04294,3.00725 18.01528,0.85931 0.97233,-2.14794 -8.35852,-33.99823 -8.35852,-33.99823 z"
       id="path111"
       sodipodi:nodetypes="csscc" />
    <path
       style="display:inline;fill:#efd5b1;fill-opacity:1;stroke:#000000;stroke-width:1.85208;stroke-linecap:round;stroke-linejoin:round;stroke-miterlimit:4;stroke-dasharray:none;stroke-opacity:1"
       d="m 132.42816,229.87223 c 0,0 7.60267,35.36576 9.89173,35.52441 2.28906,0.15864 12.0482,0.5856 11.6093,-1.53126 -0.43889,-2.11685 -1.71129,-35.53391 -1.71129,-35.53391 z"
       id="path113"
       sodipodi:nodetypes="csscc" />
    <path
       style="display:inline;fill:#45392e;fill-opacity:1;stroke:#000000;stroke-width:1.85208;stroke-linecap:round;stroke-linejoin:round;stroke-miterlimit:4;stroke-dasharray:none;stroke-opacity:1"
       d="m 122.9867,262.28683 c 0,0 -12.98048,11.21866 -2.94253,12.83944 10.03794,1.62078 13.61998,-0.89228 17.1754,-6.19628 3.55544,-5.304 3.47978,-5.20172 3.47978,-5.20172 0,0 -13.15334,5.12131 -17.71265,-1.44144 z"
       id="path115"
       sodipodi:nodetypes="csscc" />
    <path
       style="display:inline;fill:#45392e;fill-opacity:1;stroke:#000000;stroke-width:1.85208;stroke-linecap:round;stroke-linejoin:round;stroke-miterlimit:4;stroke-dasharray:none;stroke-opacity:1"
       d="m 139.72721,263.47189 c 0,0 -6.53044,9.80881 -1.6299,10.91635 4.90055,1.10757 16.79762,1.65248 17.89659,-3.00744 1.09897,-4.65993 -1.38892,-8.20469 -1.38892,-8.20469 0,0 -9.64438,4.09034 -14.87777,0.29578 z"
       id="path117"
       sodipodi:nodetypes="csscc" />
    <path
       style="display:inline;fill:#d3c27c;fill-opacity:1;stroke:#000000;stroke-width:1.85208;stroke-linecap:round;stroke-linejoin:round;stroke-miterlimit:4;stroke-dasharray:none;stroke-opacity:1"
       d="m 94.055993,118.58303 c 0,0 -6.0199,53.08282 2.14993,93.58837 7.381537,36.59719 8.806937,40.22499 39.748597,31.65989 26.26376,-7.27019 29.30064,2.09196 29.69277,-7.29623 C 166.5178,215.69397 158.99357,94.534742 144.72833,86.480402 129.71123,78.001545 94.055993,118.58303 94.055993,118.58303 Z"
       id="path108"
       sodipodi:nodetypes="cssssc" />
    <path
       style="display:inline;fill:#e9d2aa;fill-opacity:1;stroke:#000000;stroke-width:1.905;stroke-linecap:butt;stroke-linejoin:miter;stroke-miterlimit:4;stroke-dasharray:none;stroke-opacity:1"
       d="m 113.96979,41.791705 c -0.51893,0.205343 -8.68603,0.563327 -6.70121,11.150087 2.05002,10.934538 6.70121,-11.150087 6.70121,-11.150087 z"
       id="path974"
       sodipodi:nodetypes="csc" />
    <path
       style="display:inline;fill:#e9d2aa;fill-opacity:1;stroke:#000000;stroke-width:1.81194;stroke-linecap:round;stroke-linejoin:round;stroke-miterlimit:4;stroke-dasharray:none;stroke-opacity:1"
       d="m 148.48736,58.032767 c 0.43166,-14.114635 2.00175,-28.469038 -19.2327,-31.274 -8.0045,-0.195903 -15.08498,4.526444 -18.41968,11.998397 -3.05773,6.851349 2.21614,7.788101 -3.96037,12.125373 -6.17651,4.337272 -11.649187,15.421684 -5.8159,19.242733 4.69815,3.077483 12.13902,-2.843464 17.16416,-0.425558 -40.797757,5.029774 0.2223,23.861998 11.89103,20.04151 13.34357,-4.368851 18.0039,-19.624636 18.37346,-31.708455 z"
       id="path120"
       sodipodi:nodetypes="scssscss" />
    <path
       style="fill:#612c3a;fill-opacity:1;stroke:#000000;stroke-width:1.25324;stroke-linecap:butt;stroke-linejoin:miter;stroke-miterlimit:4;stroke-dasharray:none;stroke-opacity:1"
       d="m 152.31677,38.37495 c -1.36964,4.780126 -11.39724,3.929623 -21.12568,1.210707 -9.72845,-2.718917 -19.15775,-7.306245 -19.3308,-9.999772 -0.45205,-7.036131 10.96777,-9.395834 21.84776,-7.718019 10.87997,1.677814 21.22012,7.393145 18.60872,16.507084 z"
       id="path1023"
       sodipodi:nodetypes="sssss" />
    <path
       style="fill:#e9d2aa;fill-opacity:1;stroke:#000000;stroke-width:1.38697;stroke-linecap:butt;stroke-linejoin:round;stroke-miterlimit:4;stroke-dasharray:none;stroke-opacity:1"
       d="m 119.34531,49.994484 c 0,0 -0.83017,-4.731723 2.15644,-6.120373 2.98661,-1.38865 4.35054,0.839951 4.88477,1.603825 0.53422,0.763873 1.34592,2.522902 0.74219,6.136928 0,0 -3.16395,-4.847622 -7.7834,-1.62038 z"
       id="path976"
       sodipodi:nodetypes="csscc" />
    <path
       style="fill:#000000;fill-opacity:1;stroke:#000000;stroke-width:0.215869px;stroke-linecap:butt;stroke-linejoin:miter;stroke-opacity:1"
       d="m 120.74645,51.015937 c 0,0 0.22535,2.024523 1.40709,2.147687 1.18175,0.123158 1.71509,-1.132732 1.77495,-1.360554 0.0599,-0.227827 0.69652,-1.788597 -0.26327,-3.294989 -0.95978,-1.506394 -2.5189,-1.356193 -2.91877,2.507856 z"
       id="path980" />
    <path
       style="display:inline;fill:#efd5b1;fill-opacity:1;stroke:#000000;stroke-width:1.85208;stroke-linecap:round;stroke-linejoin:round;stroke-miterlimit:4;stroke-dasharray:none;stroke-opacity:1"
       d="m 143.65808,55.171571 c 0,0 -6.75318,-10.541964 -5.36731,-13.435326 1.38586,-2.893363 4.29772,-0.07061 4.29772,-0.07061 0,0 -1.51695,-2.576091 1.42329,-3.783658 2.1817,-0.896021 3.45653,1.889669 3.45653,1.889669 0,0 -0.30147,-3.523024 1.89816,-3.504566 1.92958,0.0162 1.86674,0.953744 2.99755,3.590812 0,0 0.58972,-2.846495 1.74884,-3.10078 1.28992,-0.282994 2.4462,0.426733 3.21211,2.319098 1.54328,3.812959 0.29071,6.318324 0.30396,9.328673 0.007,1.544143 2.47728,11.487069 2.47728,11.487069 z"
       id="path970"
       sodipodi:nodetypes="cscscscasscc" />
    <path
       sodipodi:nodetypes="ssccsssss"
       id="path953-6"
       d="m 152.00882,125.13853 c 18.84961,-24.84968 17.4923,-29.801849 15.57266,-41.068594 -3.35922,-19.716011 -3.98162,-14.026817 -7.48623,-36.434874 0,0 -2.69903,5.751405 -19.27345,5.550655 0,0 -0.4511,0.8999 0.36477,5.932968 1.32954,8.201919 3.01385,24.244042 1.10653,28.74069 -2.29757,5.416714 -4.21386,6.329733 -12.39624,12.732015 -6.47175,5.06381 -6.45213,18.72374 0.51123,25.56007 3.88838,3.81745 17.78598,4.0161 21.60073,-1.01293 z"
       style="display:inline;fill:#d3c27c;fill-opacity:1;stroke:#000000;stroke-width:1.5875;stroke-linecap:round;stroke-linejoin:round;stroke-miterlimit:4;stroke-dasharray:none;stroke-opacity:1" />
    <path
       style="display:inline;fill:#d3c27c;fill-opacity:1;stroke:#000000;stroke-width:1.5875;stroke-linecap:round;stroke-linejoin:round;stroke-miterlimit:4;stroke-dasharray:none;stroke-opacity:1"
       d="m 152.00882,125.13853 c 18.84961,-24.84968 17.4923,-29.80185 15.57266,-41.068594 -3.35922,-19.716012 -3.98162,-14.026818 -7.48623,-36.434875 0,0 -2.69903,5.751406 -19.27345,5.550655 0,0 -0.4511,0.8999 0.36477,5.932968 1.32954,8.201919 3.01385,24.244042 1.10653,28.740691 -2.29757,5.416714 -4.21386,6.329733 -12.39624,12.732015 -6.47175,5.06381 -6.45213,18.72374 0.51123,25.56007 3.88838,3.81745 17.78598,4.0161 21.60073,-1.01293 z"
       id="path953-6-7"
       sodipodi:nodetypes="ssccsssss" />
    <path
       style="display:inline;fill:#ffffff;fill-opacity:1;stroke:#000000;stroke-width:1.85208;stroke-linecap:round;stroke-linejoin:round;stroke-miterlimit:4;stroke-dasharray:none;stroke-opacity:1"
       d="m 120.27629,71.355138 c 0,0 -3.14671,-8.678468 -8.63411,-0.868876 -1.77975,-0.828574 -5.20604,-3.546932 -7.32929,1.147128 0,0.810376 -11.539167,-1.01522 -8.146397,17.322324 0,0 -9.13397,3.005949 -5.23245,13.762386 0,0 -4.15189,2.32641 -3.8076,8.24484 0.18661,3.20783 1.868,8.32842 6.92955,7.62009 0,0 0.34889,4.52131 4.87263,7.37902 3.668357,2.31735 9.805237,1.73788 10.845427,-0.66649 0,0 -0.0389,4.92923 6.79292,3.33256 6.83184,-1.59667 5.25867,-7.58409 5.25867,-7.58409 0,0 6.2731,-2.20286 8.34353,-5.01449 3.55926,-4.83346 1.13813,-11.7611 1.13813,-11.7611 0,0 2.3486,-0.15254 5.38225,-5.173801 2.32673,-3.851155 1.3866,-8.826243 -0.41676,-9.773343 0,0 3.50631,-13.000273 -8.88375,-14.617985 0,0 2.70209,-6.331837 -7.11275,-3.348173 z"
       id="path123"
       sodipodi:nodetypes="cccccscscscscsccc" />
    <path
       style="display:inline;fill:#000000;fill-opacity:1;stroke:none;stroke-width:1.51814;stroke-linecap:round;stroke-linejoin:round;stroke-miterlimit:4;stroke-dasharray:none;stroke-opacity:1"
       d="m 105.80205,76.956388 c 0,0 5.07056,-1.222586 6.66656,1.691521 0,0 -4.3652,1.578253 -6.66656,-1.691521 z"
       id="path127"
       sodipodi:nodetypes="ccc" />
  </g>
</svg>
