<?xml version="1.0" encoding="UTF-8" standalone="no"?>
<svg
   xmlns:dc="http://purl.org/dc/elements/1.1/"
   xmlns:cc="http://creativecommons.org/ns#"
   xmlns:rdf="http://www.w3.org/1999/02/22-rdf-syntax-ns#"
   xmlns:svg="http://www.w3.org/2000/svg"
   xmlns="http://www.w3.org/2000/svg"
   xmlns:sodipodi="http://sodipodi.sourceforge.net/DTD/sodipodi-0.dtd"
   xmlns:inkscape="http://www.inkscape.org/namespaces/inkscape"
   inkscape:version="1.0 (4035a4f, 2020-05-01)"
   sodipodi:docname="car.svg"
   xml:space="preserve"
   style="enable-background:new 0 0 410 410;"
   viewBox="0 0 410 410"
   y="0px"
   x="0px"
   id="Capa_1"
   version="1.1"><metadata
   id="metadata1139"><rdf:RDF><cc:Work
       rdf:about=""><dc:format>image/svg+xml</dc:format><dc:type
         rdf:resource="http://purl.org/dc/dcmitype/StillImage" /></cc:Work></rdf:RDF></metadata><defs
   id="defs1137" /><sodipodi:namedview
   inkscape:current-layer="XMLID_1651_"
   inkscape:window-maximized="1"
   inkscape:window-y="27"
   inkscape:window-x="0"
   inkscape:cy="110.4059"
   inkscape:cx="252.78205"
   inkscape:zoom="1.3038359"
   showgrid="false"
   id="namedview1135"
   inkscape:window-height="1016"
   inkscape:window-width="1920"
   inkscape:pageshadow="2"
   inkscape:pageopacity="0"
   guidetolerance="10"
   gridtolerance="10"
   objecttolerance="10"
   borderopacity="1"
   bordercolor="#666666"
   pagecolor="#ffffff" />
<g
   id="XMLID_1651_">
	<path
   sodipodi:nodetypes="cccccccccccccccccccccccccccccccccccsccccccccc"
   d="M 130,132.5 H 100 92.5 85 77.5 L 71.280945,135.90282 62.5,150 55,167.5 47.5,185 40,202.5 H 30 20 10 L 2.6394814,203.18323 0,207.5 v 5 5 5 30 5 5 5 5 5 5 5 L 1.0037325,290.55084 3.75,292.5 H 7.5 11.25 15 18.75 22.5 26.25 30 c 0,-24.853 20.147,-45 45,-45 24.853,0 45,20.147 45,45 h 50 v -160 z m 25,70 H 72.639 l 17.143,-40 H 155 Z"
   style="display:inline;fill:#78b9eb"
   id="XMLID_1653_" />
	<path
   sodipodi:nodetypes="cccccccccccccccccccccscccccccccccccccccccccccccccc"
   d="m 320,202.5 -6.25,-8.75 -6.25,-8.75 -6.25,-8.75 -6.25,-8.75 -6.25,-8.75 -6.25,-8.75 -6.25,-8.75 -6.07546,-7.12369 L 266.25,132.5 H 262.5 258.75 255 251.25 247.5 243.75 240 210 170 v 160 h 120 c 0,-24.853 20.147,-45 45,-45 17.667,0 32.947,10.185 40.311,25 H 410 v -10 h -20 l -10,-30 h 30 L 408.03048,223.45629 404.375,221.25 398.75,220 l -5.625,-1.25 -5.625,-1.25 -5.625,-1.25 -5.625,-1.25 -5.625,-1.25 -5.625,-1.25 -5.625,-1.25 -5.625,-1.25 -5.625,-1.25 -5.625,-1.25 -5.625,-1.25 -5.625,-1.25 -5.625,-1.25 z m -135,0 v -40 h 69.561 l 28.571,40 z"
   style="fill:#5a8bb0"
   id="XMLID_1656_" />
	<path
   sodipodi:nodetypes="ccccccccccc"
   d="m 380,292.5 h 7.5 7.5 7.5 l 5.55318,0.20367 L 410,287.5 v -5 -5 -5 h -34.689 c 2.996,6.025 4.689,12.814 4.689,20 z"
   style="fill:#78b9eb"
   id="XMLID_1659_" />
	<path
   d="M 52.5,292.5 C 52.5,280.073 62.573,270 75,270 v -22.5 c -24.853,0 -45,20.147 -45,45 0,24.853 20.147,45 45,45 V 315 C 62.573,315 52.5,304.927 52.5,292.5 Z"
   style="fill:#616064"
   id="XMLID_1660_" />
	<path
   d="M 75,247.5 V 270 c 12.427,0 22.5,10.073 22.5,22.5 0,12.427 -10.073,22.5 -22.5,22.5 v 22.5 c 24.852,0 45,-20.147 45,-45 0,-24.853 -20.148,-45 -45,-45 z"
   style="fill:#565659"
   id="XMLID_1661_" />
	<path
   d="m 52.5,292.5 c 0,12.427 10.073,22.5 22.5,22.5 v -45 c -12.427,0 -22.5,10.073 -22.5,22.5 z"
   style="fill:#cdcdd0"
   id="XMLID_1662_" />
	<path
   d="M 75,315 C 87.427,315 97.5,304.927 97.5,292.5 97.5,280.073 87.427,270 75,270 Z"
   style="fill:#acabb1"
   id="XMLID_1663_" />
	<path
   d="m 312.5,292.5 c 0,-12.427 10.073,-22.5 22.5,-22.5 v -22.5 c -24.853,0 -45,20.147 -45,45 0,24.853 20.147,45 45,45 V 315 c -12.427,0 -22.5,-10.073 -22.5,-22.5 z"
   style="fill:#616064"
   id="XMLID_1664_" />
	<path
   d="M 335,247.5 V 270 c 12.427,0 22.5,10.073 22.5,22.5 0,12.427 -10.073,22.5 -22.5,22.5 v 22.5 c 24.852,0 45,-20.147 45,-45 0,-7.186 -1.693,-13.975 -4.689,-20 -7.364,-14.815 -22.644,-25 -40.311,-25 z"
   style="fill:#565659"
   id="XMLID_1665_" />
	<path
   d="m 312.5,292.5 c 0,12.427 10.073,22.5 22.5,22.5 v -45 c -12.427,0 -22.5,10.073 -22.5,22.5 z"
   style="fill:#cdcdd0"
   id="XMLID_1666_" />
	<path
   d="m 335,315 c 12.427,0 22.5,-10.073 22.5,-22.5 0,-12.427 -10.073,-22.5 -22.5,-22.5 z"
   style="fill:#acabb1"
   id="XMLID_1667_" />
	<polygon
   points="155,202.5 155,162.5 89.782,162.5 72.639,202.5 "
   style="fill:#ffffff"
   id="XMLID_1668_" />
	<polygon
   points="185,162.5 185,202.5 283.133,202.5 254.561,162.5 "
   style="fill:#ffffff"
   id="XMLID_1669_" />
	<rect
   rx="4.8485036"
   ry="1.3356388"
   x="0"
   height="30"
   width="30"
   style="fill:#ff5023"
   y="222.5"
   id="XMLID_1670_" />
	<polygon
   points="390,262.5 410,262.5 410,232.5 380,232.5 "
   style="fill:#ff9811"
   id="XMLID_1671_" />
	
	
	
	
	
	
	
	
</g>















</svg>
