<?xml version="1.0" encoding="iso-8859-1"?>
<!-- Generator: Adobe Illustrator 19.0.0, SVG Export Plug-In . SVG Version: 6.00 Build 0)  -->
<svg version="1.1" id="Layer_1" xmlns="http://www.w3.org/2000/svg" xmlns:xlink="http://www.w3.org/1999/xlink" x="0px" y="0px"
	 viewBox="0 0 512 512" style="enable-background:new 0 0 512 512;" xml:space="preserve">
<path style="fill:#8A6746;" d="M271.733,18.108c0,10.01-8.108,18.119-18.108,18.119c-0.449,0-0.909-0.021-1.348-0.052
	c-9.373-0.69-16.771-8.516-16.771-18.066c0-9.54,7.398-17.366,16.771-18.056C252.716,0.021,253.175,0,253.625,0
	C263.624,0,271.733,8.108,271.733,18.108z"/>
<path style="fill:#664B33;" d="M271.733,18.108c0,10.01-8.108,18.119-18.108,18.119V0C263.624,0,271.733,8.108,271.733,18.108z"/>
<path style="fill:#BD9B7B;" d="M391.666,92.338l-2.236,8.443H120.515l-2.226-8.401c0.01-0.021,0.021-0.052,0.042-0.084
	c3.678-9.143,10-21.274,20.365-33.468c18.098-21.285,52.705-46.634,114.928-46.916c0.366-0.01,0.731-0.01,1.097-0.01
	c62.861,0,97.97,25.485,116.36,46.853c10.512,12.225,16.844,24.388,20.564,33.541C391.656,92.306,391.656,92.327,391.666,92.338z"/>
<path style="fill:#B38A65;" d="M391.666,92.338l-2.236,8.443H253.625V11.912c0.366-0.01,0.731-0.01,1.097-0.01
	c62.861,0,97.97,25.485,116.36,46.853c10.512,12.225,16.844,24.388,20.564,33.541C391.656,92.306,391.656,92.327,391.666,92.338z"/>
<polygon style="fill:#664B33;" points="427.423,208.975 396.076,208.975 396.076,123.642 374.133,123.642 374.133,92.295 
	427.423,92.295 "/>
<g>
	<path style="fill:#8A6746;" d="M138.447,92.298H92.841c-7.431,0-11.072,9.057-5.707,14.2l81.154,80.016L138.447,92.298z"/>
	<rect x="181.29" y="265.75" style="fill:#8A6746;" width="147.35" height="72.798"/>
</g>
<rect x="253.63" y="265.75" style="fill:#664B33;" width="75.03" height="72.798"/>
<g>
	<polygon style="fill:#FF9A00;" points="391.677,512 118.269,512 170.608,315.037 339.338,315.037 	"/>
	<path style="fill:#FF9A00;" d="M391.666,92.338l-2.236,8.443L339.338,289.96h-168.73l-50.093-189.18l-2.226-8.401l0.042-0.084
		h273.314C391.656,92.306,391.656,92.327,391.666,92.338z"/>
</g>
<g>
	<polygon style="fill:#FF8900;" points="339.338,315.037 391.677,512 253.625,512 253.625,315.037 	"/>
	<path style="fill:#FF8900;" d="M391.666,92.338l-2.236,8.443L339.338,289.96h-85.713V92.296h138.021
		C391.656,92.306,391.656,92.327,391.666,92.338z"/>
</g>
<polygon style="fill:#8A6746;" points="217.984,497.894 249.017,315.037 217.22,315.037 186.188,497.894 "/>
<g>
	<polygon style="fill:#664B33;" points="322.952,497.894 291.92,315.037 260.124,315.037 291.156,497.894 	"/>
	<polygon style="fill:#664B33;" points="326.914,92.296 293.383,289.959 261.576,289.959 295.107,92.296 	"/>
</g>
<g>
	<polygon style="fill:#8A6746;" points="249.163,289.959 217.367,289.959 183.826,92.296 215.632,92.296 	"/>
	<rect x="99.67" y="480.65" style="fill:#8A6746;" width="307.9" height="31.347"/>
</g>
<rect x="253.63" y="480.65" style="fill:#664B33;" width="153.94" height="31.347"/>
<g>
</g>
<g>
</g>
<g>
</g>
<g>
</g>
<g>
</g>
<g>
</g>
<g>
</g>
<g>
</g>
<g>
</g>
<g>
</g>
<g>
</g>
<g>
</g>
<g>
</g>
<g>
</g>
<g>
</g>
</svg>
