<?xml version="1.0" encoding="UTF-8" standalone="no"?>
<svg
   xmlns:dc="http://purl.org/dc/elements/1.1/"
   xmlns:cc="http://creativecommons.org/ns#"
   xmlns:rdf="http://www.w3.org/1999/02/22-rdf-syntax-ns#"
   xmlns:svg="http://www.w3.org/2000/svg"
   xmlns="http://www.w3.org/2000/svg"
   xmlns:sodipodi="http://sodipodi.sourceforge.net/DTD/sodipodi-0.dtd"
   xmlns:inkscape="http://www.inkscape.org/namespaces/inkscape"
   inkscape:version="1.0 (4035a4f, 2020-05-01)"
   sodipodi:docname="italian_coffe.svg"
   xml:space="preserve"
   style="enable-background:new 0 0 512 512;"
   viewBox="0 0 512 512"
   y="0px"
   x="0px"
   id="Layer_1"
   version="1.1"><metadata
   id="metadata396"><rdf:RDF><cc:Work
       rdf:about=""><dc:format>image/svg+xml</dc:format><dc:type
         rdf:resource="http://purl.org/dc/dcmitype/StillImage" /></cc:Work></rdf:RDF></metadata><defs
   id="defs394" /><sodipodi:namedview
   inkscape:current-layer="Layer_1"
   inkscape:window-maximized="1"
   inkscape:window-y="407"
   inkscape:window-x="1920"
   inkscape:cy="220.43196"
   inkscape:cx="95.392999"
   inkscape:zoom="0.84960938"
   showgrid="false"
   id="namedview392"
   inkscape:window-height="731"
   inkscape:window-width="1366"
   inkscape:pageshadow="2"
   inkscape:pageopacity="0"
   guidetolerance="10"
   gridtolerance="10"
   objecttolerance="10"
   borderopacity="1"
   bordercolor="#666666"
   pagecolor="#ffffff" />
<path
   id="path315"
   d="M271.733,18.108c0,10.01-8.108,18.119-18.108,18.119c-0.449,0-0.909-0.021-1.348-0.052  c-9.373-0.69-16.771-8.516-16.771-18.066c0-9.54,7.398-17.366,16.771-18.056C252.716,0.021,253.175,0,253.625,0  C263.624,0,271.733,8.108,271.733,18.108z"
   style="fill:#8A6746;" />
<path
   id="path317"
   d="M271.733,18.108c0,10.01-8.108,18.119-18.108,18.119V0C263.624,0,271.733,8.108,271.733,18.108z"
   style="fill:#664B33;" />
<path
   id="path319"
   d="M391.666,92.338l-2.236,8.443H120.515l-2.226-8.401c0.01-0.021,0.021-0.052,0.042-0.084  c3.678-9.143,10-21.274,20.365-33.468c18.098-21.285,52.705-46.634,114.928-46.916c0.366-0.01,0.731-0.01,1.097-0.01  c62.861,0,97.97,25.485,116.36,46.853c10.512,12.225,16.844,24.388,20.564,33.541C391.656,92.306,391.656,92.327,391.666,92.338z"
   style="fill:#BD9B7B;" />
<path
   id="path321"
   d="M391.666,92.338l-2.236,8.443H253.625V11.912c0.366-0.01,0.731-0.01,1.097-0.01  c62.861,0,97.97,25.485,116.36,46.853c10.512,12.225,16.844,24.388,20.564,33.541C391.656,92.306,391.656,92.327,391.666,92.338z"
   style="fill:#B38A65;" />
<polygon
   id="polygon323"
   points="427.423,208.975 396.076,208.975 396.076,123.642 374.133,123.642 374.133,92.295   427.423,92.295 "
   style="fill:#664B33;" />
<path
   id="path325"
   d="M 138.447,92.298 H 92.841 c -7.431,0 -11.072,9.057 -5.707,14.2 l 81.154,80.016 z"
   style="fill:#8a6746" /><rect
   id="rect327"
   height="72.797997"
   width="147.35001"
   style="fill:#8a6746"
   y="265.75"
   x="181.28999" />
<rect
   id="rect331"
   height="72.798"
   width="75.03"
   style="fill:#664B33;"
   y="265.75"
   x="253.63" />
<g
   style="display:inline"
   id="g337">
	<polygon
   id="polygon333"
   points="391.677,512 118.269,512 170.608,315.037 339.338,315.037 "
   style="fill:#ff9a00" />
	<path
   id="path335"
   d="m 391.666,92.338 -2.236,8.443 -50.092,189.179 h -168.73 l -50.093,-189.18 -2.226,-8.401 0.042,-0.084 h 273.314 c 0.011,0.011 0.011,0.032 0.021,0.043 z"
   style="fill:#ff9a00" />
</g>
<g
   style="display:inline"
   id="g343">
	<polygon
   id="polygon339"
   points="253.625,512 253.625,315.037 339.338,315.037 391.677,512 "
   style="fill:#ff8900" />
	<path
   id="path341"
   d="m 391.666,92.338 -2.236,8.443 -50.092,189.179 H 253.625 V 92.296 h 138.021 c 0.01,0.01 0.01,0.031 0.02,0.042 z"
   style="fill:#ff8900" />
</g>


<g
   style="display:inline"
   id="g357"><polygon
   id="polygon345"
   points="217.22,315.037 186.188,497.894 217.984,497.894 249.017,315.037 "
   style="display:inline;fill:#8a6746" />
	<polygon
   id="polygon353"
   points="215.632,92.296 249.163,289.959 217.367,289.959 183.826,92.296 "
   style="fill:#8a6746" />
	<rect
   id="rect355"
   height="31.347"
   width="307.89999"
   style="display:inline;fill:#8a6746"
   y="480.64999"
   x="99.669998" />
</g><g
   style="display:inline"
   id="g351"><rect
   id="rect359"
   height="31.347"
   width="153.94"
   style="display:inline;fill:#664b33"
   y="480.64999"
   x="253.63" />
	<polygon
   id="polygon347"
   points="291.156,497.894 322.952,497.894 291.92,315.037 260.124,315.037 "
   style="fill:#664b33" />
	<polygon
   id="polygon349"
   points="295.107,92.296 326.914,92.296 293.383,289.959 261.576,289.959 "
   style="fill:#664b33" />
</g>
















</svg>
