<?xml version="1.0" encoding="UTF-8" standalone="no"?>
<svg
   xmlns:dc="http://purl.org/dc/elements/1.1/"
   xmlns:cc="http://creativecommons.org/ns#"
   xmlns:rdf="http://www.w3.org/1999/02/22-rdf-syntax-ns#"
   xmlns:svg="http://www.w3.org/2000/svg"
   xmlns="http://www.w3.org/2000/svg"
   xmlns:sodipodi="http://sodipodi.sourceforge.net/DTD/sodipodi-0.dtd"
   xmlns:inkscape="http://www.inkscape.org/namespaces/inkscape"
   width="210mm"
   height="297mm"
   viewBox="0 0 210 297"
   version="1.1"
   id="svg8"
   inkscape:version="1.0 (4035a4f, 2020-05-01)"
   sodipodi:docname="sheperd.svg">
  <defs
     id="defs2" />
  <sodipodi:namedview
     id="base"
     pagecolor="#ffffff"
     bordercolor="#666666"
     borderopacity="1.0"
     inkscape:pageopacity="0.0"
     inkscape:pageshadow="2"
     inkscape:zoom="0.24748737"
     inkscape:cx="-395.26069"
     inkscape:cy="571.83497"
     inkscape:document-units="mm"
     inkscape:current-layer="layer4"
     inkscape:document-rotation="0"
     showgrid="false"
     inkscape:window-width="1366"
     inkscape:window-height="731"
     inkscape:window-x="1920"
     inkscape:window-y="407"
     inkscape:window-maximized="1" />
  <metadata
     id="metadata5">
    <rdf:RDF>
      <cc:Work
         rdf:about="">
        <dc:format>image/svg+xml</dc:format>
        <dc:type
           rdf:resource="http://purl.org/dc/dcmitype/StillImage" />
        <dc:title />
      </cc:Work>
    </rdf:RDF>
  </metadata>
  <g
     inkscape:label="Layer 1"
     inkscape:groupmode="layer"
     id="layer1">
    <path
       id="path871-3"
       d="m 68.531866,90.547332 c -0.57495,-0.478938 -3.63036,-3.945385 -4.73595,-6.340532 -1.01359,-2.195829 -0.002,-6.605996 -1.60725,-7.075167 -0.92206,-0.08116 -1.53927,-0.367711 -1.53927,-0.367711 v 0 c 0,0 -1.33098,-3.269269 -2.55278,-2.663307 -0.53638,0.266025 -0.51471,1.090781 -0.60755,1.375995 -0.093,0.285159 -1.80439,-0.06947 -1.95822,1.128516 -0.10622,0.833214 0.21457,0.982359 -0.8121,1.426705 0,0 -0.81824,-0.148028 -0.62531,2.057261 0.0676,0.772627 -0.0674,0.610371 -0.41004,1.452375 -0.34266,0.842013 -0.48554,2.333815 3.13043,4.447231 4.24051,2.478439 4.78228,8.768663 7.13726,11.161707 z"
       style="fill:#000000;fill-opacity:1;stroke:#ffffff;stroke-width:0.264583px;stroke-linecap:butt;stroke-linejoin:miter;stroke-opacity:1"
       sodipodi:nodetypes="cscccsccsssscc" />
  </g>
  <g
     inkscape:groupmode="layer"
     id="layer2"
     inkscape:label="Layer 2">
    <path
       sodipodi:nodetypes="cssscssssssssssssc"
       style="fill:#000000;fill-opacity:1;stroke:#ffffff;stroke-width:0.264583px;stroke-linecap:butt;stroke-linejoin:miter;stroke-opacity:1"
       d="m 59.111756,59.281925 c 0,0 -0.71299,0.196394 -0.8827,0.83803 -0.16972,0.641633 0.33831,2.436696 -0.56671,3.473617 -0.90503,1.036923 0.59824,2.936073 0.88173,5.82863 C 58.827556,72.314757 58.09947,97.262287 58,100.31859 c -0.0995,3.05629 -2.184514,28.43322 -2.539564,38.38043 -0.35504,9.9472 -2.18825,32.94967 -2.41516,40.83339 -0.2269,7.88371 -1.60911,23.52657 -1.21762,29.34272 0.39149,5.81616 -0.766656,18.26652 -0.766656,22.18041 0,0 -0.518844,4.40606 1.550066,4.40606 2.06891,0 3.55065,0.24714 2.69085,-3.45281 -0.8598,-3.69996 -0.5381,-27.65357 -0.49706,-29.40762 0.041,-1.75406 1.688134,-24.49656 1.785144,-26.04042 0.097,-1.54386 1.567596,-27.33539 1.636676,-28.35264 0.0691,-1.01726 2.57545,-45.51136 2.78106,-46.64167 0.20561,-1.13031 0.7678,-35.24598 0.10366,-38.283497 -0.66413,-3.037517 -0.74324,-4.063151 -1.99961,-4.001018 z"
       id="path857" />
  </g>
  <g
     inkscape:label="Layer 4"
     id="layer4"
     inkscape:groupmode="layer">
    <path
       style="fill:#000000;fill-opacity:1;stroke:#ffffff;stroke-width:0.264583px;stroke-linecap:butt;stroke-linejoin:miter;stroke-opacity:1"
       d="m 96.47047,82.184077 c 0,0 -4.992865,4.153789 -8.526684,7.445676 -3.963165,3.691839 -8.41148,5.935687 -8.41148,5.935687 0,0 -11.40357,-9.590452 -14.38206,-14.277763 -2.9785,-4.68731 -4.47168,24.253783 -1.03235,26.205333 3.13917,1.78123 11.36298,6.81934 21.01171,6.67516 4.429714,-0.0662 10.176144,-12.64626 17.185724,-20.830863 7.00957,-8.1846 -5.84486,-11.15323 -5.84486,-11.15323 z"
       id="path865"
       sodipodi:nodetypes="cscssssc" />
  </g>
  <g
     inkscape:label="Layer 5"
     id="layer5"
     inkscape:groupmode="layer">
    <path
       style="fill:#000000;fill-opacity:1;stroke:#ffffff;stroke-width:0.264583px;stroke-linecap:butt;stroke-linejoin:miter;stroke-opacity:1"
       d="m 93.99361,78.28922 -2.77466,0.283027 c -2.46875,0.03108 -3.390084,-0.928338 -3.02869,-3.098199 0.36139,-2.169864 0.22223,-5.632313 0.22223,-5.632313 0,0 -0.773744,-0.352249 -1.193364,-0.672093 -0.41961,-0.319842 -0.44661,-0.695349 0.37716,-1.697606 0.928234,-1.129362 1.384554,-2.689025 1.500014,-3.022481 0.11545,-0.333456 -0.394895,-2.190675 -0.313525,-4.041726 0.10859,-2.470027 0.951195,-4.416386 1.352395,-4.755078 5.47014,-4.617873 9.54766,1.817299 10.61941,8.146006 4.78153,28.235239 -4.95133,29.123168 -6.76097,14.490463 z"
       id="path859"
       sodipodi:nodetypes="ccscssssssc" />
  </g>
  <g
     inkscape:label="Layer 7"
     id="layer7"
     inkscape:groupmode="layer">
    <path
       sodipodi:nodetypes="cscsccccssssc"
       id="path859-6"
       d="M 86.767,142.95093 C 88.32264,93.701715 93.30888,89.070731 94.83011,79.301167 98.19554,57.687853 84.918006,57.682244 90.50312,52.83956 c 4.92227,-3.088572 11.95207,-4.69192 17.16797,1.683842 4.45311,5.443348 3.6828,15.151532 10.50103,34.558739 7.24848,32.696299 5.56729,60.374899 7.97985,89.310799 1.68375,18.50716 4.31565,31.7606 5.19747,40.16765 0.52035,11.90958 9.43963,14.65986 1.60625,15.62475 -6.75426,0.85567 -8.47176,8.16272 -17.22827,7.99772 -8.01633,-0.15106 -10.58022,-6.21443 -20.65212,-5.67939 -10.267293,0.54542 -7.503498,-1.59451 -17.218445,-4.46895 -15.064383,-4.45723 -0.05565,-1.6267 4.14565,-49.63698 0,0 2.945975,-22.3483 4.764495,-39.44681 z"
       style="fill:#000000;fill-opacity:1;stroke:#ffffff;stroke-width:0.264583px;stroke-linecap:butt;stroke-linejoin:miter;stroke-opacity:1" />
  </g>
  <g
     inkscape:groupmode="layer"
     id="layer3"
     inkscape:label="Layer 3">
    <path
       sodipodi:nodetypes="cscsscscssssccc"
       style="fill:#000000;fill-opacity:1;stroke:#ffffff;stroke-width:0.264583px;stroke-linecap:butt;stroke-linejoin:miter;stroke-opacity:1"
       d="m 68.145396,116.22025 c -0.69481,-0.27783 -3.57067,-2.71105 -4.90747,-4.86682 -0.96397,-1.55454 -0.14655,-5.40639 -2.21588,-5.39047 -0.90201,0.20775 -1.5928,0.46175 -2.18676,0.022 -0.74114,-0.54878 -0.0483,-1.25129 -0.57385,-1.70391 -0.7948,-0.68454 -1.54924,-0.85317 -2.3702,0.23587 -0.21635,0.43317 -0.29687,0.96294 -0.29703,1.26289 -1.7e-4,0.29994 -1.82466,0.56543 -1.77132,1.91246 0.0533,1.34704 0.14896,1.68762 -0.0154,1.86142 -0.16435,0.1738 -1.3123,0.92497 -0.97556,2.00802 0.33674,1.08305 0.36449,1.15503 0.29881,2.06171 -0.0657,0.90669 0.11912,1.85456 2.66422,3.41607 2.5451,1.56151 6.77151,3.50238 6.77151,3.50238 1.7632,-1.13973 4.65074,-3.32927 5.57893,-4.32157 z"
       id="path871" />
  </g>
  <g
     inkscape:label="Layer 6"
     id="layer6"
     inkscape:groupmode="layer">
    <path
       style="fill:#000000;fill-opacity:1;stroke:#ffffff;stroke-width:0.264583px;stroke-linecap:butt;stroke-linejoin:miter;stroke-opacity:1"
       d="m 61.130006,134.68195 c -3.87695,-0.24881 1.00891,-26.19571 2.96161,-24.75172 3.94812,2.91955 10.125476,2.15782 25.385644,1.21353 8.163227,-0.50514 8.93673,-7.61195 17.98686,-13.571838 7.25775,-4.77953 13.72069,8.008928 5.30376,16.297418 0,0 -11.47184,13.84812 -17.76157,15.2255 -23.166754,5.07325 -28.934944,5.90424 -33.876304,5.58711 z"
       id="path867"
       sodipodi:nodetypes="sssscss" />
  </g>
</svg>
